<svg xmlns="http://www.w3.org/2000/svg" viewBox="0 0 1200 520" role="img" aria-labelledby="t">
  <title id="t">Booking Core</title>
  <defs>
    <linearGradient id="bg" x1="0%" y1="0%" x2="100%" y2="100%">
      <stop offset="0%" style="stop-color:#1e3a8a"/>
      <stop offset="55%" style="stop-color:#3b82f6"/>
      <stop offset="100%" style="stop-color:#93c5fd"/>
    </linearGradient>
    <linearGradient id="card" x1="0%" y1="0%" x2="0%" y2="100%">
      <stop offset="0%" style="stop-color:#ffffff;stop-opacity:0.95"/>
      <stop offset="100%" style="stop-color:#eff6ff;stop-opacity:0.9"/>
    </linearGradient>
  </defs>
  <rect width="1200" height="520" fill="url(#bg)"/>
  <circle cx="980" cy="120" r="180" fill="#ffffff" opacity="0.06"/>
  <circle cx="180" cy="400" r="220" fill="#ffffff" opacity="0.05"/>
  <rect x="120" y="100" width="520" height="320" rx="24" fill="url(#card)" stroke="#bfdbfe" stroke-width="2"/>
  <rect x="160" y="150" width="180" height="24" rx="8" fill="#3b82f6" opacity="0.35"/>
  <rect x="160" y="190" width="440" height="14" rx="6" fill="#64748b" opacity="0.25"/>
  <rect x="160" y="220" width="400" height="14" rx="6" fill="#64748b" opacity="0.18"/>
  <g transform="translate(160, 270)">
    <rect width="72" height="72" rx="12" fill="#dbeafe" stroke="#3b82f6" stroke-width="2"/>
    <rect x="96" width="72" height="72" rx="12" fill="#fff" stroke="#cbd5e1" stroke-width="2"/>
    <rect x="192" width="72" height="72" rx="12" fill="#fff" stroke="#cbd5e1" stroke-width="2"/>
    <rect y="88" width="72" height="72" rx="12" fill="#fff" stroke="#cbd5e1" stroke-width="2"/>
    <rect x="96" y="88" width="72" height="72" rx="14" fill="#3b82f6"/>
    <text x="132" y="138" text-anchor="middle" fill="#fff" font-family="system-ui,sans-serif" font-size="28" font-weight="700">15</text>
  </g>
  <rect x="700" y="140" width="380" height="240" rx="20" fill="#ffffff" opacity="0.12" stroke="#e2e8f0" stroke-width="1"/>
  <rect x="740" y="190" width="300" height="16" rx="6" fill="#fff" opacity="0.35"/>
  <rect x="740" y="220" width="260" height="12" rx="4" fill="#fff" opacity="0.22"/>
  <rect x="740" y="250" width="280" height="12" rx="4" fill="#fff" opacity="0.18"/>
  <rect x="740" y="300" width="120" height="40" rx="10" fill="#fff" opacity="0.9"/>
</svg>
