<svg xmlns="http://www.w3.org/2000/svg" viewBox="0 0 640 400" role="img" aria-labelledby="t">
  <title id="t">Merchant</title>
  <defs>
    <linearGradient id="m" x1="0%" y1="0%" x2="100%" y2="100%">
      <stop offset="0%" style="stop-color:#f0f9ff"/>
      <stop offset="100%" style="stop-color:#e0f2fe"/>
    </linearGradient>
  </defs>
  <rect width="640" height="400" fill="url(#m)"/>
  <rect x="80" y="70" width="480" height="260" rx="20" fill="#fff" stroke="#bae6fd" stroke-width="2" filter="drop-shadow(0 12px 24px rgba(14,165,233,0.15))"/>
  <rect x="120" y="110" width="140" height="100" rx="12" fill="#0ea5e9" opacity="0.2"/>
  <rect x="130" y="120" width="120" height="12" rx="4" fill="#0369a1" opacity="0.4"/>
  <rect x="130" y="142" width="90" height="10" rx="3" fill="#64748b" opacity="0.3"/>
  <rect x="130" y="162" width="100" height="10" rx="3" fill="#64748b" opacity="0.2"/>
  <circle cx="190" cy="200" r="18" fill="#0ea5e9"/>
  <rect x="290" y="115" width="220" height="16" rx="6" fill="#0c4a6e" opacity="0.35"/>
  <rect x="290" y="145" width="200" height="12" rx="4" fill="#64748b" opacity="0.25"/>
  <rect x="290" y="175" width="180" height="12" rx="4" fill="#64748b" opacity="0.18"/>
  <rect x="290" y="210" width="88" height="36" rx="10" fill="#0ea5e9"/>
  <rect x="390" y="210" width="88" height="36" rx="10" fill="#e2e8f0"/>
  <rect x="120" y="240" width="400" height="56" rx="12" fill="#f8fafc" stroke="#e2e8f0"/>
  <rect x="140" y="258" width="120" height="20" rx="6" fill="#cbd5e1" opacity="0.5"/>
  <rect x="280" y="258" width="80" height="20" rx="6" fill="#86efac" opacity="0.6"/>
</svg>
