<svg xmlns="http://www.w3.org/2000/svg" viewBox="0 0 640 400" role="img" aria-labelledby="t">
  <title id="t">System admin</title>
  <defs>
    <linearGradient id="s" x1="0%" y1="0%" x2="100%" y2="0%">
      <stop offset="0%" style="stop-color:#f5f3ff"/>
      <stop offset="100%" style="stop-color:#ede9fe"/>
    </linearGradient>
  </defs>
  <rect width="640" height="400" fill="url(#s)"/>
  <rect x="60" y="60" width="520" height="280" rx="18" fill="#fff" stroke="#c4b5fd" stroke-width="2"/>
  <rect x="90" y="95" width="140" height="90" rx="10" fill="#7c3aed" opacity="0.12"/>
  <rect x="100" y="108" width="50" height="8" rx="3" fill="#5b21b6" opacity="0.5"/>
  <rect x="100" y="128" width="110" height="6" rx="2" fill="#64748b" opacity="0.35"/>
  <rect x="100" y="142" width="90" height="6" rx="2" fill="#64748b" opacity="0.22"/>
  <rect x="260" y="95" width="140" height="90" rx="10" fill="#a78bfa" opacity="0.15"/>
  <rect x="430" y="95" width="120" height="90" rx="10" fill="#ddd6fe"/>
  <rect x="90" y="205" width="460" height="110" rx="10" fill="#faf5ff" stroke="#e9d5ff"/>
  <rect x="110" y="228" width="80" height="12" rx="4" fill="#6d28d9" opacity="0.35"/>
  <rect x="110" y="252" width="420" height="8" rx="3" fill="#c4b5fd" opacity="0.6"/>
  <rect x="110" y="270" width="380" height="8" rx="3" fill="#ddd6fe"/>
  <rect x="110" y="288" width="400" height="8" rx="3" fill="#ede9fe"/>
</svg>
