<svg xmlns="http://www.w3.org/2000/svg" width="1200" height="675" viewBox="0 0 1200 675" role="img" aria-label="Demo image placeholder">
  <defs>
    <linearGradient id="bg" x1="0" y1="0" x2="1" y2="1">
      <stop offset="0%" stop-color="#0f172a"/>
      <stop offset="100%" stop-color="#334155"/>
    </linearGradient>
    <linearGradient id="accent" x1="0" y1="0" x2="1" y2="0">
      <stop offset="0%" stop-color="#38bdf8"/>
      <stop offset="100%" stop-color="#a78bfa"/>
    </linearGradient>
  </defs>
  <rect width="1200" height="675" fill="url(#bg)"/>
  <rect x="72" y="72" width="1056" height="531" rx="36" fill="rgba(255,255,255,0.06)" stroke="rgba(255,255,255,0.12)"/>
  <rect x="120" y="420" width="960" height="12" rx="6" fill="rgba(255,255,255,0.10)"/>
  <rect x="120" y="450" width="720" height="12" rx="6" fill="rgba(255,255,255,0.08)"/>
  <circle cx="600" cy="300" r="96" fill="rgba(255,255,255,0.08)" stroke="rgba(255,255,255,0.18)"/>
  <path d="M600 244c31 0 56 25 56 56s-25 56-56 56-56-25-56-56 25-56 56-56Z" fill="url(#accent)" opacity="0.95"/>
  <path d="M552 332c18 22 46 36 78 36s60-14 78-36" fill="none" stroke="rgba(255,255,255,0.55)" stroke-width="10" stroke-linecap="round"/>
  <text x="600" y="170" text-anchor="middle" fill="rgba(255,255,255,0.92)" font-family="ui-sans-serif, system-ui, -apple-system, Segoe UI, Roboto, Helvetica, Arial" font-size="44" font-weight="700">
    Demo image
  </text>
  <text x="600" y="220" text-anchor="middle" fill="rgba(255,255,255,0.70)" font-family="ui-sans-serif, system-ui, -apple-system, Segoe UI, Roboto, Helvetica, Arial" font-size="22">
    Shown when no image is provided
  </text>
</svg>
